<?xml version="1.0" encoding="utf-8"?>
<!-- Generator: Adobe Illustrator 20.1.0, SVG Export Plug-In . SVG Version: 6.00 Build 0)  -->
<svg version="1.1" id="Слой_1" xmlns="http://www.w3.org/2000/svg" xmlns:xlink="http://www.w3.org/1999/xlink" x="0px" y="0px"
	 viewBox="0 0 180 50" style="enable-background:new 0 0 180 50;" xml:space="preserve">
<style type="text/css">
	.st0{enable-background:new    ;}
	.st1{fill:#4176E0;}
	.st2{fill:#6699FF;}
	.st3{fill:#C90000;}
</style>
<g id="Слой_x0020_1_1_">
	<g class="st0">
		<g>
			<path d="M72.4,22.2c0,2.1-1.1,3.7-3.2,4.7c-1.7,0.8-3.7,1.3-6,1.3c-2.9,0-5.3-0.5-7-1.6c-2.1-1.3-3.2-3.3-3.2-6.1v-0.3h0.7v0.2
				c0,4.8,3.2,7.2,9.5,7.2c2.2,0,4-0.4,5.5-1.1c1.9-0.9,2.9-2.4,2.9-4.3c0-1.4-0.4-2.4-1.1-3.2c-0.6-0.6-1.6-1.1-3-1.6
				c-0.7-0.2-2.4-0.6-5-1.2c-2.9-0.6-4.9-1.2-5.9-1.8c-1.9-1-2.9-2.5-2.9-4.5c0-3.8,2.9-5.8,8.8-5.8c6.1,0,9.2,2.3,9.3,6.8h-0.7
				c-0.1-2.4-1.1-4.1-2.7-5c-1.3-0.8-3.3-1.1-5.8-1.1c-5.4,0-8.1,1.7-8.1,5.1c0,1.7,0.8,3,2.3,3.9c1,0.5,2.7,1,5,1.5
				c4.1,0.8,6.9,1.6,8.3,2.4C71.6,18.6,72.4,20.1,72.4,22.2z"/>
			<path d="M63.3,28.6c-3,0-5.4-0.6-7.2-1.7c-2.2-1.4-3.4-3.5-3.4-6.4v-0.8h1.5v0.6c0,4.5,3,6.7,9.1,6.7c2.1,0,3.9-0.3,5.3-1
				c1.8-0.9,2.7-2.2,2.7-4c0-1.2-0.3-2.2-1-2.9c-0.6-0.6-1.5-1.1-2.8-1.5c-0.7-0.2-2.3-0.6-4.9-1.2c-3-0.7-5-1.3-6-1.8
				c-2.1-1.1-3.1-2.7-3.1-4.9c0-4.1,3.1-6.2,9.2-6.2c6.4,0,9.6,2.4,9.7,7.2l0,0.4h-1.5l0-0.4c-0.1-2.3-1-3.8-2.5-4.7
				c-1.3-0.7-3.1-1.1-5.6-1.1c-5.1,0-7.6,1.5-7.6,4.7c0,1.6,0.7,2.7,2.1,3.5c0.9,0.5,2.6,1,4.8,1.4c4.2,0.8,7,1.6,8.4,2.5
				c1.6,1,2.5,2.7,2.5,4.9c0,2.2-1.1,4-3.4,5.1C67.7,28.2,65.6,28.6,63.3,28.6z M63,15.9c1.3,0.3,2.4,0.5,3.2,0.7
				C65.2,16.3,64.1,16.1,63,15.9z"/>
		</g>
		<g>
			<path d="M82.5,12.6H79V28h-0.7V12.6h-3.4V12h3.4V6.6H79V12h3.5V12.6z"/>
			<polygon points="79.4,28.4 77.8,28.4 77.8,13 74.4,13 74.4,11.6 77.8,11.6 77.8,6.2 79.4,6.2 79.4,11.6 82.9,11.6 82.9,13 
				79.4,13 			"/>
		</g>
		<g>
			<path d="M99.4,28h-0.7v-4.3c-0.4,1.5-1.2,2.7-2.4,3.5c-1.2,0.8-2.6,1.2-4.3,1.2c-2,0-3.7-0.5-4.9-1.6c-1.2-1.1-1.8-2.6-1.8-4.6
				V11H86v11.1c0,1.8,0.5,3.2,1.6,4.1s2.5,1.4,4.3,1.4c2.2,0,3.9-0.7,5.1-2.1c1.1-1.3,1.6-3.1,1.6-5.3V11h0.7V28z"/>
			<path d="M91.9,28.7c-2.1,0-3.9-0.6-5.1-1.7c-1.3-1.1-1.9-2.8-1.9-4.9V10.6h1.5v11.5c0,1.7,0.5,3,1.5,3.8c1,0.9,2.4,1.3,4.1,1.3
				c2.1,0,3.7-0.7,4.8-2c1-1.2,1.5-2.9,1.5-5.1v-9.6h1.5v17.8h-1.5v-2.7c-0.5,0.7-1.1,1.4-1.8,1.9C95.2,28.3,93.6,28.7,91.9,28.7z"
				/>
		</g>
		<g>
			<path d="M118.8,28h-0.7v-4.9c-1.3,3.5-3.9,5.3-7.6,5.3c-2.5,0-4.5-0.9-6-2.6c-1.4-1.6-2-3.7-2-6.3c0-2.6,0.7-4.8,2.1-6.4
				c1.5-1.7,3.5-2.6,6.1-2.6c1.8,0,3.4,0.5,4.7,1.4c1.3,0.9,2.2,2.2,2.8,3.9V4.4h0.7V28z M118.1,19.5c0-2.5-0.6-4.5-1.9-5.9
				c-1.3-1.6-3.2-2.3-5.7-2.3c-2.3,0-4.1,0.8-5.4,2.5c-1.2,1.5-1.9,3.5-1.9,5.8c0,2.4,0.6,4.3,1.8,5.8c1.3,1.6,3.1,2.4,5.4,2.4
				c2.3,0,4.1-0.8,5.5-2.4C117.4,23.7,118.1,21.8,118.1,19.5z"/>
			<path d="M110.5,28.7c-2.6,0-4.8-0.9-6.3-2.7c-1.4-1.7-2.1-3.9-2.1-6.5c0-2.7,0.7-5,2.2-6.6c1.5-1.8,3.7-2.7,6.4-2.7
				c1.9,0,3.5,0.5,4.9,1.4c0.9,0.6,1.6,1.4,2.1,2.3V4h1.5v24.4h-1.5v-3.5C116.1,27.4,113.7,28.7,110.5,28.7z M110.5,11.7
				c-2.2,0-3.8,0.8-5.1,2.3c-1.2,1.4-1.8,3.3-1.8,5.5c0,2.3,0.6,4.1,1.7,5.5c1.2,1.5,2.9,2.2,5.1,2.2c2.2,0,3.9-0.7,5.2-2.3
				c1.3-1.4,1.9-3.3,1.9-5.5c0-2.4-0.6-4.3-1.8-5.7C114.6,12.4,112.8,11.7,110.5,11.7z M118.4,20.9c0,0.1,0,0.1,0,0.2L118.4,20.9z"
				/>
		</g>
		<g>
			<path d="M137.2,27.4c0,4.5-2.6,6.8-7.8,6.8c-2,0-3.6-0.4-4.8-1.2c-1.5-0.9-2.2-2.3-2.3-4.2h0.7c0.3,3.1,2.4,4.7,6.5,4.7
				c4.7,0,7-2.1,7-6.2v-3.7c-0.4,1.5-1.2,2.7-2.4,3.5c-1.2,0.8-2.6,1.2-4.3,1.2c-2,0-3.7-0.5-4.9-1.6c-1.2-1.1-1.8-2.6-1.8-4.6V11
				h0.7v11.1c0,1.8,0.5,3.2,1.6,4.1s2.5,1.4,4.3,1.4c2.2,0,3.9-0.7,5.1-2.1c1.1-1.3,1.6-3.1,1.6-5.3V11h0.7V27.4z"/>
			<path d="M129.4,34.6c-2,0-3.7-0.4-5-1.2c-1.6-1-2.4-2.5-2.5-4.5l0-0.4h1.5l0,0.4c0.2,2.9,2.2,4.3,6.1,4.3c4.4,0,6.6-1.9,6.6-5.8
				v-1.7c-0.5,0.7-1.1,1.4-1.8,1.9c-1.3,0.8-2.8,1.3-4.5,1.3c-2.1,0-3.9-0.6-5.1-1.7c-1.3-1.1-1.9-2.8-1.9-4.9V10.6h1.5v11.5
				c0,1.7,0.5,3,1.5,3.8c1,0.9,2.4,1.3,4.1,1.3c2.1,0,3.7-0.7,4.8-2c1-1.2,1.5-2.9,1.5-5.1v-9.6h1.5v16.8
				C137.6,32.1,134.9,34.6,129.4,34.6z"/>
		</g>
	</g>
	<g>
		<path class="st1" d="M157.8,17.3c-1.4-0.9-4.2-1.7-8.4-2.5c-2.3-0.4-3.9-0.9-4.8-1.4c-1.4-0.8-2.1-1.9-2.1-3.5
			c0-3.2,2.5-4.7,7.6-4.7c2.5,0,4.4,0.4,5.6,1.1c1.6,0.9,2.4,2.4,2.5,4.7l0,0.4h1.5l0-0.4c-0.1-4.8-3.3-7.2-9.7-7.2
			c-6.1,0-9.2,2.1-9.2,6.2c0,2.1,1,3.8,3.1,4.9c1,0.6,3,1.1,6,1.8c2.6,0.6,4.3,1,4.9,1.2c1.3,0.4,2.3,0.9,2.8,1.5
			c0.6,0.7,1,1.6,1,2.9c0,1.8-0.9,3.1-2.7,4c-1.4,0.7-3.2,1-5.3,1c-6.1,0-9.1-2.2-9.1-6.7v-0.6h-1.5v0.8c0,2.9,1.1,5.1,3.4,6.4
			c1.8,1.1,4.2,1.7,7.2,1.7c2.4,0,4.4-0.4,6.2-1.3c2.2-1.1,3.4-2.8,3.4-5.1C160.3,20,159.5,18.3,157.8,17.3z"/>
		<path class="st1" d="M177.6,12.8c-1.6-1.7-3.8-2.6-6.5-2.6c-2.7,0-4.9,0.9-6.5,2.6c-1.6,1.7-2.4,4-2.4,6.7c0,2.7,0.8,5,2.3,6.6
			c1.6,1.7,3.8,2.6,6.5,2.6c2.7,0,4.9-0.9,6.5-2.6c1.6-1.7,2.4-4,2.4-6.7C179.9,16.7,179.1,14.5,177.6,12.8z M171,27.3
			c-2.3,0-4.1-0.7-5.4-2.2c-1.3-1.4-2-3.3-2-5.6c0-2.3,0.7-4.2,2-5.7c1.3-1.4,3.1-2.2,5.4-2.2c2.3,0,4.1,0.7,5.4,2.1
			c1.3,1.4,1.9,3.3,1.9,5.7c0,2.3-0.7,4.2-2,5.6C175.1,26.5,173.3,27.3,171,27.3z"/>
	</g>
	<path class="st2" d="M32.3,42c5.6,0.1,4.9,0.6,5.7-1.7c2.6-7.6-1.5-16.1-9.2-18.9c-5-1.8-13.3-0.2-14.9-1.2c-1.3-0.9-1.2-2.9,0-3.6
		c1.1-0.6,8.6-0.4,10.5-0.3c4.2,0.1,8.7,1.9,11.7,4.5l1.4,1.3c0.6,0.6,0.7,0.9,1.3,1.4l0.1-6.1c-0.9-0.5-1.7-1.3-3.4-2.3
		c-5-2.8-8.8-3-14.6-3c-3.7,0-7.7-0.5-10,1.6c-3.6,3.3-2.4,9.4,2.3,11c3.8,1.2,10.8-1.1,15.9,1.7c4,2.2,6.3,7,5.2,11.8
		C33.8,39.2,32.9,41.3,32.3,42z"/>
	<path class="st1" d="M0.1,30.6l0,6.1C0.9,37.2,1.8,38,3.4,39c5,2.8,8.8,3.1,14.6,3.1c3.7,0,7.7,0.5,10-1.6c3.6-3.3,2.4-9.4-2.3-11
		c-3.8-1.2-10.8,1.1-15.9-1.7c-4-2.2-6.3-7-5.2-11.8c0.3-1.2,1.2-3.3,1.9-3.9c-5.6-0.1-5-0.6-5.7,1.7c-0.2,0.7-0.4,1.5-0.5,2.2
		c-0.7,4.5,0.6,9.2,3.4,12.3c5,5.5,9.3,5.3,16.2,5.3c1.3,0,4.1-0.2,5,0.4c1.3,0.9,1.2,2.8,0,3.6c-1.1,0.6-8.6,0.4-10.5,0.3
		c-4.2-0.1-8.7-1.9-11.7-4.5L1.3,32C0.7,31.4,0.6,31.1,0.1,30.6z"/>
	<g class="st0">
		<path class="st3" d="M52.5,40.9c0-0.6,0.1-1,0.4-1.4c0.3-0.3,0.7-0.5,1.3-0.5c0.6,0,1,0.2,1.3,0.5c0.3,0.3,0.4,0.8,0.4,1.4v3.9
			c0,0.6-0.1,1-0.4,1.4c-0.3,0.3-0.7,0.5-1.3,0.5c-0.6,0-1-0.2-1.3-0.5c-0.3-0.3-0.4-0.8-0.4-1.4V40.9z M53.4,44.8
			c0,0.3,0.1,0.6,0.2,0.8c0.1,0.2,0.4,0.3,0.7,0.3c0.3,0,0.5-0.1,0.7-0.3c0.1-0.2,0.2-0.5,0.2-0.8v-4c0-0.3-0.1-0.6-0.2-0.8
			c-0.1-0.2-0.4-0.3-0.7-0.3c-0.3,0-0.5,0.1-0.7,0.3c-0.1,0.2-0.2,0.5-0.2,0.8V44.8z"/>
		<path class="st3" d="M59.8,42.2c0.6,0,1,0.1,1.3,0.4c0.3,0.3,0.4,0.7,0.4,1.3v0.8c0,0.6-0.1,1-0.4,1.4c-0.3,0.3-0.7,0.5-1.3,0.5
			h-1.8V39h3.2v0.8h-2.4v2.4H59.8z M59.8,45.8c0.3,0,0.5-0.1,0.7-0.2c0.1-0.2,0.2-0.4,0.2-0.8v-0.9c0-0.4-0.1-0.6-0.2-0.8
			c-0.2-0.1-0.4-0.2-0.7-0.2h-0.9v2.9H59.8z"/>
		<path class="st3" d="M65.3,39c0.6,0,1,0.2,1.3,0.5c0.3,0.3,0.4,0.8,0.4,1.4v0.9c0,0.6-0.1,1.1-0.4,1.4c-0.3,0.3-0.7,0.5-1.3,0.5
			h-0.7v3h-0.8V39H65.3z M65.3,42.9c0.3,0,0.5-0.1,0.7-0.2s0.2-0.4,0.2-0.8v-1c0-0.3-0.1-0.6-0.2-0.8c-0.1-0.2-0.4-0.3-0.7-0.3h-0.8
			v3.1H65.3z"/>
		<path class="st3" d="M69.8,45.1l-0.3,1.5h-0.8l1.4-7.5h1.2l1.4,7.5H72l-0.3-1.5H69.8z M70,44.4h1.7L70.8,40L70,44.4z"/>
		<path class="st3" d="M76.5,39c0.6,0,1,0.2,1.3,0.5c0.3,0.3,0.4,0.8,0.4,1.4v0.2c0,0.4-0.1,0.7-0.2,1s-0.4,0.5-0.7,0.6
			c0.3,0.1,0.6,0.3,0.7,0.6c0.1,0.3,0.2,0.6,0.2,1v0.6c0,0.6-0.1,1-0.4,1.4c-0.3,0.3-0.7,0.5-1.3,0.5c-0.6,0-1-0.2-1.3-0.5
			c-0.3-0.3-0.4-0.8-0.4-1.4V44h0.8v0.8c0,0.3,0.1,0.6,0.2,0.8c0.1,0.2,0.4,0.3,0.7,0.3c0.3,0,0.5-0.1,0.7-0.3s0.2-0.5,0.2-0.9v-0.6
			c0-0.7-0.3-1.1-1-1.1H76v-0.8h0.4c0.3,0,0.5-0.1,0.7-0.3c0.2-0.2,0.3-0.4,0.3-0.8v-0.3c0-0.4-0.1-0.7-0.2-0.9s-0.4-0.3-0.7-0.3
			c-0.3,0-0.5,0.1-0.7,0.3c-0.1,0.2-0.2,0.5-0.2,0.8v0.5h-0.8v-0.5c0-0.6,0.1-1,0.4-1.4C75.5,39.1,75.9,39,76.5,39z"/>
		<path class="st3" d="M80.2,40.9c0-0.6,0.1-1,0.4-1.4c0.3-0.3,0.7-0.5,1.3-0.5c0.6,0,1,0.2,1.3,0.5c0.3,0.3,0.4,0.8,0.4,1.4v3.9
			c0,0.6-0.1,1-0.4,1.4c-0.3,0.3-0.7,0.5-1.3,0.5c-0.6,0-1-0.2-1.3-0.5c-0.3-0.3-0.4-0.8-0.4-1.4V40.9z M81.1,44.8
			c0,0.3,0.1,0.6,0.2,0.8c0.1,0.2,0.4,0.3,0.7,0.3c0.3,0,0.5-0.1,0.7-0.3c0.1-0.2,0.2-0.5,0.2-0.8v-4c0-0.3-0.1-0.6-0.2-0.8
			c-0.1-0.2-0.4-0.3-0.7-0.3c-0.3,0-0.5,0.1-0.7,0.3c-0.1,0.2-0.2,0.5-0.2,0.8V44.8z"/>
		<path class="st3" d="M87.5,39c0.6,0,1,0.1,1.3,0.4c0.3,0.3,0.4,0.7,0.4,1.3v0.4c0,0.4-0.1,0.7-0.2,1c-0.1,0.2-0.4,0.4-0.7,0.5
			c0.4,0.1,0.6,0.3,0.8,0.6c0.2,0.3,0.2,0.6,0.2,1v0.6c0,0.6-0.1,1-0.4,1.3c-0.3,0.3-0.7,0.5-1.3,0.5h-1.7V39H87.5z M87.3,42.2
			c0.3,0,0.6-0.1,0.8-0.2s0.3-0.4,0.3-0.8v-0.4c0-0.3-0.1-0.6-0.2-0.7c-0.1-0.2-0.3-0.2-0.6-0.2h-0.8v2.4H87.3z M87.5,45.8
			c0.6,0,0.9-0.3,0.9-1v-0.7c0-0.4-0.1-0.7-0.3-0.9C88,43.1,87.7,43,87.4,43h-0.7v2.8H87.5z"/>
		<path class="st3" d="M92.2,45.1l-0.3,1.5h-0.8l1.4-7.5h1.2l1.4,7.5h-0.8l-0.3-1.5H92.2z M92.3,44.4H94L93.1,40L92.3,44.4z"/>
		<path class="st3" d="M98.3,46.6v-6.8h-1.4V39h3.6v0.8h-1.4v6.8H98.3z"/>
		<path class="st3" d="M105.1,42.4v0.8h-1.8v2.7h2.3v0.8h-3.1V39h3.1v0.8h-2.3v2.6H105.1z"/>
		<path class="st3" d="M109.2,39.8l-0.2,4.9c0,0.3,0,0.6-0.1,0.8c-0.1,0.2-0.1,0.4-0.2,0.6c-0.1,0.2-0.3,0.3-0.5,0.4
			c-0.2,0.1-0.4,0.1-0.7,0.1h-0.1v-0.8c0.2,0,0.3,0,0.4-0.1c0.1,0,0.2-0.1,0.3-0.2c0.1-0.1,0.1-0.2,0.1-0.3c0-0.1,0-0.3,0-0.5
			l0.2-5.7h3.1v7.5h-0.8v-6.8H109.2z"/>
		<path class="st3" d="M115.3,42c0.6,0,1,0.2,1.3,0.5c0.3,0.3,0.4,0.8,0.4,1.4v0.9c0,0.6-0.1,1-0.4,1.4c-0.3,0.3-0.7,0.5-1.3,0.5
			h-1.6V39h0.8v3H115.3z M115.4,45.8c0.3,0,0.5-0.1,0.7-0.3c0.1-0.2,0.2-0.4,0.2-0.8v-1c0-0.4-0.1-0.6-0.2-0.8
			c-0.2-0.2-0.4-0.2-0.7-0.2h-0.7v3.1H115.4z"/>
		<path class="st3" d="M120,43.2v3.4h-0.8V39h0.8v3.4h1.9V39h0.8v7.5h-0.8v-3.4H120z"/>
		<path class="st3" d="M124.8,40.9c0-0.6,0.1-1,0.4-1.4c0.3-0.3,0.7-0.5,1.3-0.5c0.6,0,1,0.2,1.3,0.5c0.3,0.3,0.4,0.8,0.4,1.4v3.9
			c0,0.6-0.1,1-0.4,1.4c-0.3,0.3-0.7,0.5-1.3,0.5c-0.6,0-1-0.2-1.3-0.5c-0.3-0.3-0.4-0.8-0.4-1.4V40.9z M125.6,44.8
			c0,0.3,0.1,0.6,0.2,0.8c0.1,0.2,0.4,0.3,0.7,0.3c0.3,0,0.5-0.1,0.7-0.3c0.1-0.2,0.2-0.5,0.2-0.8v-4c0-0.3-0.1-0.6-0.2-0.8
			c-0.1-0.2-0.4-0.3-0.7-0.3c-0.3,0-0.5,0.1-0.7,0.3c-0.1,0.2-0.2,0.5-0.2,0.8V44.8z"/>
		<path class="st3" d="M133,42.4v0.8h-1.8v2.7h2.3v0.8h-3.1V39h3.1v0.8h-2.3v2.6H133z"/>
		<path class="st3" d="M139.3,45.1l-0.3,1.5h-0.8l1.4-7.5h1.2l1.4,7.5h-0.8l-0.3-1.5H139.3z M139.4,44.4h1.7l-0.9-4.4L139.4,44.4z"
			/>
		<path class="st3" d="M145.1,39.8v6.8h-0.8V39h3v0.8H145.1z"/>
		<path class="st3" d="M152.1,42.4v0.8h-1.8v2.7h2.3v0.8h-3.1V39h3.1v0.8h-2.3v2.6H152.1z"/>
		<path class="st3" d="M155.4,43.2v3.4h-0.8V39h0.8v3.4h1.9V39h0.8v7.5h-0.8v-3.4H155.4z"/>
		<path class="st3" d="M161.9,39c0.6,0,1,0.2,1.3,0.5c0.3,0.3,0.4,0.8,0.4,1.4v0.7h-0.8v-0.7c0-0.3-0.1-0.6-0.2-0.8
			c-0.1-0.2-0.4-0.3-0.7-0.3c-0.3,0-0.5,0.1-0.7,0.3c-0.1,0.2-0.2,0.5-0.2,0.8v4c0,0.3,0.1,0.6,0.2,0.8c0.1,0.2,0.4,0.3,0.7,0.3
			c0.3,0,0.5-0.1,0.7-0.3c0.1-0.2,0.2-0.5,0.2-0.8v-1h0.8v0.9c0,0.6-0.1,1-0.4,1.4c-0.3,0.3-0.7,0.5-1.3,0.5c-0.6,0-1-0.2-1.3-0.5
			c-0.3-0.3-0.4-0.8-0.4-1.4v-3.9c0-0.3,0-0.5,0.1-0.8c0.1-0.2,0.2-0.4,0.3-0.6c0.1-0.2,0.3-0.3,0.5-0.4C161.4,39,161.6,39,161.9,39
			z"/>
		<path class="st3" d="M166.8,46.6v-6.8h-1.4V39h3.6v0.8h-1.4v6.8H166.8z"/>
		<path class="st3" d="M172.7,39c0.6,0,1,0.1,1.3,0.4c0.3,0.3,0.4,0.7,0.4,1.3v0.4c0,0.4-0.1,0.7-0.2,1c-0.1,0.2-0.4,0.4-0.7,0.5
			c0.4,0.1,0.6,0.3,0.8,0.6c0.2,0.3,0.2,0.6,0.2,1v0.6c0,0.6-0.1,1-0.4,1.3s-0.7,0.5-1.3,0.5H171V39H172.7z M172.5,42.2
			c0.3,0,0.6-0.1,0.8-0.2c0.2-0.1,0.3-0.4,0.3-0.8v-0.4c0-0.3-0.1-0.6-0.2-0.7c-0.1-0.2-0.3-0.2-0.6-0.2h-0.8v2.4H172.5z
			 M172.7,45.8c0.6,0,0.9-0.3,0.9-1v-0.7c0-0.4-0.1-0.7-0.3-0.9c-0.2-0.2-0.4-0.2-0.8-0.2h-0.7v2.8H172.7z"/>
		<path class="st3" d="M176.4,40.9c0-0.6,0.1-1,0.4-1.4c0.3-0.3,0.7-0.5,1.3-0.5c0.6,0,1,0.2,1.3,0.5c0.3,0.3,0.4,0.8,0.4,1.4v3.9
			c0,0.6-0.1,1-0.4,1.4s-0.7,0.5-1.3,0.5c-0.6,0-1-0.2-1.3-0.5c-0.3-0.3-0.4-0.8-0.4-1.4V40.9z M177.3,44.8c0,0.3,0.1,0.6,0.2,0.8
			c0.1,0.2,0.4,0.3,0.7,0.3c0.3,0,0.5-0.1,0.7-0.3c0.1-0.2,0.2-0.5,0.2-0.8v-4c0-0.3-0.1-0.6-0.2-0.8c-0.1-0.2-0.4-0.3-0.7-0.3
			c-0.3,0-0.5,0.1-0.7,0.3c-0.1,0.2-0.2,0.5-0.2,0.8V44.8z"/>
	</g>
</g>
</svg>
